<svg width="147" height="99" viewBox="0 0 147 99" fill="none" xmlns="http://www.w3.org/2000/svg">
<path d="M4 1.67018H25.1215V58.7456C25.1215 67.7978 29.1938 73.1854 32.5059 75.4279C29.058 78.4635 18.6059 81.1437 10.7328 74.6622C6.11758 70.8334 4 64.4613 4 58.5268V1.67018ZM135.914 49.1191V43.1025H142.376V22.0992H135.29C132.548 9.43703 121.39 0.0292969 108.06 0.0292969C92.6939 0.0292969 80.1785 12.6094 80.1785 28.1158V77.1235C84.5223 77.7525 89.7891 77.0415 94.2143 73.2948C98.8566 69.466 100.947 63.1213 100.947 57.1594V55.3271H111.481V34.3238H100.947V27.9517C100.947 18.4892 115.119 18.4892 115.119 27.9517V49.037C115.119 64.516 127.607 77.1235 143 77.1235V56.2022C139.063 56.2022 135.914 53.0025 135.914 49.1191ZM56.0164 22.0445V52.9478C56.0164 57.1594 49.5551 57.1594 49.5551 52.9478V22.0445H28.7051V58.3354C28.7051 64.8442 30.877 73.1033 40.9219 75.8108C50.9668 78.4909 56.7223 72.9119 56.7223 72.9119C56.1521 76.5765 52.7857 79.284 47.2475 79.8309C43.0395 80.2685 37.6912 78.8464 35.0307 77.6978V96.9235C41.8449 98.9746 49.0121 99.6036 56.0979 98.2089C68.8848 95.7202 76.9479 84.9724 76.9479 70.642V21.9078H56.0164V22.0445Z" fill="#737373"/>
</svg>
